<?xml version="1.0" encoding="UTF-8"?>
<!DOCTYPE svg PUBLIC "-//W3C//DTD SVG 1.1//EN" "http://www.w3.org/Graphics/SVG/1.1/DTD/svg11.dtd">
<!-- Creator: CorelDRAW 2019 (64-Bit) -->
<svg xmlns="http://www.w3.org/2000/svg" xml:space="preserve" width="185.282mm" height="185.282mm" version="1.1" style="shape-rendering:geometricPrecision; text-rendering:geometricPrecision; image-rendering:optimizeQuality; fill-rule:evenodd; clip-rule:evenodd"
viewBox="0 0 185.2822 185.2821"
 xmlns:xlink="http://www.w3.org/1999/xlink"
 xmlns:xodm="http://www.corel.com/coreldraw/odm/2003">
 <defs>
  <style type="text/css">
   <![CDATA[
    .fil2 {fill:#E42D24}
    .fil1 {fill:#FDEB07}
    .fil3 {fill:black}
    .fil0 {fill:white}
   ]]>
  </style>
 </defs>
 <g id="Layer_x0020_1">
  <metadata id="CorelCorpID_0Corel-Layer"/>
  <g id="_737211552">
   <polygon class="fil0" points="1.2469,184.035 184.0638,184.035 184.0638,1.2465 1.2469,1.2465 "/>
   <path class="fil1" d="M1.2469 1.2468l0 182.7884 182.8168 0 0 -182.7884 -182.8168 0zm170.6641 75.9929l0 0c-0.2908,5.6849 -2.1166,12.7621 -3.7121,17.5188 -6.4399,19.0851 -13.8936,30.9476 -31.1518,30.9476 -5.0761,0 -14.0962,-1.3629 -17.4028,-10.4124l-0.8117 -2.1175 -1.3923 1.7697c-5.2944,6.7867 -13.4071,10.7739 -22.0147,10.8187 -6.5841,0.0285 -11.8918,-2.1754 -15.2853,-6.3812l-0.9576 -1.1601 -0.986 1.1023c-3.6546,4.0605 -10.0358,6.3805 -17.4898,6.3805 -5.3132,0.2122 -10.4704,-1.8193 -14.2124,-5.5974l-0.8699 -0.9862 -0.9571 0.957c-3.7127,3.7127 -9.5139,5.5981 -16.8228,5.4236 -8.9049,-0.203 -14.2994,-5.1628 -14.4737,-13.2548 -0.2901,-12.4723 11.8052,-38.7215 16.8228,-46.6974 2.6836,-5.003 7.9574,-8.0663 13.6324,-7.9186 4.0605,0 6.8163,0.8413 8.4402,2.5815 1.5084,1.566 1.7985,2.9005 1.9146,6.1202l0.1737 4.1475 2.2046 -3.5097c5.3081,-8.5564 14.067,-9.7165 22.7979,-9.7165 6.0329,0 11.3117,2.2045 13.4292,5.6558l0.783 1.2762 1.16 -0.9569c5.0554,-4.0064 11.3614,-6.1017 17.8091,-5.9172 7.628,0 13.197,1.8852 16.504,5.6564 0.7541,0.8408 1.2469,1.4499 1.943,2.9l0.8698 1.7697 1.2468 -1.5084c4.892,-5.7665 12.1693,-8.955 19.7234,-8.6434 6.4979,0 11.4283,1.74 14.6773,5.1338 4.0607,4.2927 4.6398,10.2964 4.4082,14.5891l0 0.0293z"/>
   <path class="fil2" d="M1.2469 1.2468l0 182.7884 182.8168 0 0 -182.7884 -182.8168 0zm175.798 82.9831l0 0c-0.8416,6.6712 -5.3372,18.9975 -7.715,23.8995 -6.3807,13.2262 -14.9667,23.3488 -31.471,23.3488 -8.8164,0 -16.068,-2.7845 -20.303,-8.2081 -6.1157,5.394 -14.0047,8.3473 -22.1595,8.2951 -6.3811,0 -12.0078,-1.8271 -16.3005,-5.2207 -5.4001,3.548 -11.7557,5.3599 -18.2148,5.192 -5.5039,0.1146 -10.9034,-1.5094 -15.4305,-4.6411 -5.3256,3.2539 -11.5223,4.7929 -17.7513,4.4089 -11.8047,-0.2901 -19.9841,-7.7734 -20.2158,-18.6499 -0.2901,-14.4445 11.8916,-40.8968 17.6059,-50.0331 3.8233,-6.796 11.0558,-10.9571 18.853,-10.8478 8.7012,0 11.8916,2.4949 13.4292,5.6557 6.7288,-5.6853 15.6337,-6.0327 21.9856,-6.0327 6.961,0 11.3695,1.8554 15.1113,4.8431 5.4971,-3.2245 11.7853,-4.8521 18.1567,-4.699 8.9913,0 15.6916,2.0896 20.361,6.7008 5.6422,-4.5083 12.7086,-6.8526 19.9269,-6.6133 10.0941,0 16.7358,3.6555 20.6217,9.0787 5.512,7.6572 4.5253,15.3728 3.5101,23.5231z"/>
   <path class="fil3" d="M-0 0l0 185.2821 185.2822 0 0 -185.2821 -185.2822 0zm182.7293 2.5528l0 0 0 180.177 -180.1769 0 0 -180.177 180.1769 0z"/>
   <path class="fil3" d="M176.1455 55.6027l0 -1.2777 0.8698 0c0.6098,0 0.9573,0.2329 0.9573,0.6395 0,0.3191 -0.2021,0.6382 -0.8698,0.6382l-0.9573 0zm3.075 2.6096l0 0 -0.5222 -0.9278c-0.4646,-0.812 -0.5805,-0.9278 -0.9869,-1.0732 0.7836,-0.1158 1.248,-0.6086 1.248,-1.3047 0,-0.7257 -0.4644,-1.2764 -1.45,-1.2764l-2.3199 0 0 4.5821 0.956 0 0 -1.8852 0.1737 0c0.4065,0 0.5802,0.0579 0.7553,0.2316 0.2033,0.2035 0.4632,0.5805 0.6369,0.8996l0.3769 0.754 1.1606 0 -0.0284 0zm-2.2619 -5.8881l0 0 0.0283 0c-1.9711,0 -3.568,1.5981 -3.568,3.568 0,1.9703 1.5969,3.5676 3.568,3.5676 0.9458,-0.0035 1.8529,-0.383 2.5194,-1.055 0.6664,-0.672 1.0383,-1.5807 1.0345,-2.5268 -0.004,-0.947 -0.3834,-1.8528 -1.0564,-2.5193 -0.6704,-0.6665 -1.5801,-1.0384 -2.5258,-1.0345zm0 -0.8698l0 0c-1.1774,0 -2.3071,0.4683 -3.1395,1.2996 -0.8311,0.8325 -1.2996,1.9609 -1.2996,3.1382 0,1.1766 0.4685,2.3056 1.2996,3.1378 0.8324,0.8323 1.9621,1.2998 3.1395,1.2998 2.4498,0 4.4364,-1.9868 4.4364,-4.4376 0,-2.4512 -1.9866,-4.4378 -4.4364,-4.4378zm-24.1614 4.7569l0 0c16.5906,0 20.9125,10.8475 20.3901,21.0861 -0.319,6.1495 -2.3212,13.4875 -3.7713,17.8672 -6.5542,19.4913 -14.4443,31.8182 -32.3689,31.8182 -8.1782,0 -15.6622,-3.1906 -18.6206,-11.2253 -5.5342,7.0894 -14.0079,11.2566 -23.0009,11.3123 -7.1641,0.0287 -12.7331,-2.5236 -16.3006,-6.8742 -4.2059,4.6406 -11.3119,6.7872 -18.4181,6.7872 -5.6665,0.2172 -11.1626,-1.9622 -15.1401,-6.0042 -3.8868,3.9159 -10.0071,6.0042 -17.7805,5.8012 -9.948,-0.2322 -15.5171,-6.2073 -15.6914,-14.5029 -0.2901,-12.8487 11.95,-39.3592 16.9968,-47.3934 2.909,-5.3945 8.6077,-8.6928 14.7345,-8.5268 3.5097,0 7.135,0.6378 9.3686,2.987 1.8269,1.943 2.1461,3.6837 2.2622,6.9611 5.6559,-9.0786 15.1693,-10.3251 23.871,-10.3251 6.6712,0 12.24,2.4939 14.5599,6.2646 4.4673,-3.7997 10.9062,-6.2067 18.6213,-6.2067 7.9181,0 13.8063,1.943 17.4894,6.0905 0.8775,0.9399 1.5929,2.018 2.1179,3.1905 5.1286,-6.0519 12.7535,-9.4097 20.6807,-9.1073zm-119.239 49.0176l0 0 0 -0.0287c3.8868,-8.6725 15.6922,-30.8903 15.8661,-38.1701 0.0577,-2.7266 -1.0444,-5.0472 -5.5112,-5.0472 -4.6988,0 -7.6282,1.9728 -10.0648,5.9463 -5.2207,8.3534 -16.3583,33.5873 -16.1262,44.493 0.1447,6.2359 4.9889,8.7012 10.3255,8.8174 7.4251,0.1743 15.9524,-1.914 16.823,-11.1957 0.2899,-3.0745 -2.0307,-6.439 -11.3124,-4.815zm30.1944 -8.5851l0 0c7.8602,1.3923 14.2701,0.8992 16.4454,-6.4972 1.5952,-5.4819 -2.4075,-7.6281 -11.8917,-6.2942 1.7983,-4.6114 3.5096,-7.222 3.5096,-7.222 2.001,0.1453 5.366,0.0292 7.5698,-0.1161 5.1051,-0.29 10.268,-2.61 10.268,-8.7012 0,-4.4089 -5.3659,-6.3811 -10.0064,-6.3811 -10.5872,0 -16.7651,1.5661 -22.7689,13.5454 -4.9312,9.7164 -10.1517,24.3348 -10.1517,33.9934 0,8.2081 6.6129,12.5009 14.1254,12.5009 6.8742,-0.0291 16.7354,-2.6391 16.7354,-11.5731 0,-3.6836 -2.8713,-5.5106 -7.309,-5.6267 -3.1171,-0.0779 -6.2278,0.3232 -9.2233,1.1892 0.7573,-2.9804 1.6574,-5.9232 2.6974,-8.8173zm46.6391 -23.0587l0 0c3.1328,0 2.8429,1.6531 2.0884,3.7706 -2.117,6.0912 4.2641,6.2359 5.8303,6.0912 5.5976,-0.4061 8.6724,-4.032 9.4265,-10.1517 1.0444,-8.4117 -6.0042,-11.6023 -14.9668,-11.6023 -14.8793,0 -20.7381,9.0786 -26.307,22.131 -2.6391,6.1489 -5.9459,16.5905 -5.9459,23.2616 0,9.3396 5.7137,14.4154 14.8792,14.4154 13.4,0 22.8556,-10.6739 25.5823,-23.9871 0.8122,-4.1189 1.8561,-11.8047 -8.5564,-11.3699 -5.2789,0.2322 -8.4695,1.3922 -10.1518,6.7871 -1.7401,5.5689 4.5537,5.7142 4.5537,5.7142 -1.2762,5.7428 -4.9597,9.2234 -8.2665,9.2234 -2.0592,0 -3.9152,-0.87 -3.3062,-5.2211 0.9279,-6.3521 6.9031,-21.8112 9.6296,-25.6979 1.2761,-1.7405 2.9293,-3.3645 5.5106,-3.3645zm56.2695 11.0218l0 0 0 -0.0292c1.3922,-6.8742 4.5241,-22.6235 -13.1679,-22.8265 -15.1983,-0.1739 -20.0142,9.8904 -24.712,22.2757 -2.6975,6.8158 -5.8881,17.2283 -5.8595,24.5956 0.0582,10.2678 7.5709,12.7039 14.2127,12.7914 6.6702,0.087 14.2989,-1.4797 20.5651,-12.7914 3.8574,-6.9028 7.3958,-16.1844 8.9616,-24.0156zm-12.6455 -7.7443l0 0c0.0567,-1.3921 -0.1453,-3.0166 -2.3791,-3.0166 -1.5375,-0.0292 -2.8717,0.2608 -4.031,2.1175 -2.6983,3.4806 -10.5289,24.8856 -10.4132,29.1498 0.058,1.537 0.9276,2.9001 2.8127,2.9001 2.1758,0 3.366,-1.5079 4.439,-3.3063 2.4654,-4.1767 9.3967,-23.1169 9.5716,-27.8445z"/>
  </g>
 </g>
</svg>
